<?xml version="1.0" encoding="utf-8"?>
<!-- Generator: Adobe Illustrator 25.3.1, SVG Export Plug-In . SVG Version: 6.00 Build 0)  -->
<svg version="1.1" id="Layer_1" xmlns="http://www.w3.org/2000/svg" xmlns:xlink="http://www.w3.org/1999/xlink" x="0px" y="0px"
	 viewBox="0 0 5000 3000" style="enable-background:new 0 0 5000 3000;" xml:space="preserve">
<style type="text/css">
	.st0{display:none;fill-rule:evenodd;clip-rule:evenodd;}
	.st1{fill-rule:evenodd;clip-rule:evenodd;fill:#FFFFFF;}
</style>
<g>
	<rect x="2500" y="-2.2" class="st0" width="2500" height="3000"/>
	<path class="st1" d="M3479.7,2919.2l-82.5-106.7h-25.1v154.3h26.9v-109.7l84.9,109.7h22.6v-154.3h-26.9V2919.2z M3228.7,2905.5
		h-53.1l26.5-61.7L3228.7,2905.5z M3215,2811.4h-25.2l-67.9,155.4h27.8l15.9-37.2h73l15.6,37.2h28.7L3215,2811.4z M3037.2,2945.4
		v-64.8h-65.7v23.6h39.4v29c-4.7,3.6-10.2,6.4-16.7,8.6c-6.4,2.1-13.3,3.2-20.6,3.2c-7.9,0-15.1-1.4-21.5-4.2
		c-6.4-2.8-11.9-6.7-16.5-11.6c-4.6-4.9-8.2-10.8-10.7-17.6c-2.5-6.7-3.8-14.1-3.8-22.1c0-7.5,1.3-14.6,3.9-21.2
		c2.6-6.6,6.1-12.4,10.6-17.4c4.5-5,9.8-9,15.9-11.8c6.1-2.9,12.7-4.3,19.7-4.3c4.9,0,9.3,0.4,13.4,1.2c4,0.8,7.7,1.9,11.1,3.3
		c3.4,1.4,6.6,3.1,9.7,5.2c3.1,2,6.1,4.3,9,6.8l17.2-20.5c-4-3.4-8.1-6.4-12.2-8.9c-4.2-2.6-8.6-4.7-13.4-6.5
		c-4.7-1.8-9.8-3.1-15.3-4.1c-5.5-1-11.6-1.4-18.4-1.4c-11.6,0-22.3,2.1-32.1,6.4c-9.8,4.3-18.2,10-25.2,17.3
		c-7,7.3-12.5,15.7-16.4,25.4s-5.8,20-5.8,30.9c0,11.3,1.9,21.8,5.7,31.5c3.8,9.7,9.2,18.1,16.2,25.2c7,7.2,15.4,12.7,25.2,16.8
		c9.9,4,20.8,6.1,32.9,6.1c6.8,0,13.2-0.6,19.4-1.9c6.2-1.2,12-3,17.3-5.2c5.4-2.2,10.4-4.7,15-7.7
		C3029.2,2951.8,3033.4,2948.7,3037.2,2945.4z M2775.6,2889.9c0,7.5-1.3,14.6-3.9,21.3c-2.6,6.7-6.1,12.5-10.7,17.4
		c-4.6,4.9-10,8.8-16.4,11.7c-6.4,2.9-13.4,4.3-21.1,4.3c-7.6,0-14.7-1.5-21.2-4.4c-6.5-3-12-6.9-16.6-11.9
		c-4.6-5-8.2-10.8-10.8-17.5c-2.6-6.7-3.9-13.8-3.9-21.3s1.3-14.6,3.9-21.3c2.6-6.7,6.1-12.5,10.7-17.4c4.6-4.9,10-8.8,16.4-11.7
		c6.4-2.9,13.4-4.3,21.1-4.3c7.6,0,14.7,1.5,21.1,4.4c6.5,3,12,6.9,16.7,11.9c4.6,5,8.2,10.8,10.8,17.5
		C2774.3,2875.3,2775.6,2882.4,2775.6,2889.9z M2804.1,2889.4c0-10.9-2-21.2-6-30.8c-4-9.7-9.5-18.2-16.5-25.4
		c-7.1-7.2-15.5-12.9-25.3-17.1c-9.8-4.2-20.7-6.3-32.6-6.3c-11.9,0-22.8,2.1-32.6,6.4c-9.8,4.3-18.4,10-25.6,17.3
		c-7.2,7.3-12.8,15.7-16.8,25.4s-5.9,20-5.9,30.9c0,10.9,2,21.2,5.9,30.8c4,9.7,9.5,18.2,16.5,25.4c7.1,7.2,15.5,12.9,25.3,17.1
		c9.9,4.2,20.7,6.3,32.7,6.3c11.9,0,22.7-2.1,32.6-6.4c9.9-4.3,18.4-10,25.6-17.3c7.2-7.3,12.8-15.8,16.7-25.5
		C2802.1,2910.6,2804.1,2900.3,2804.1,2889.4z M2459.2,2966.8h108v-24.5h-81.1v-129.8h-26.9V2966.8z M2278,2852.9
		c0-5.1,2.2-9.5,6.6-13.1c4.4-3.6,10.6-5.4,18.5-5.4c7.1,0,14,1.4,21,4.1c6.9,2.7,13.9,6.6,20.9,11.8l14.6-20.5
		c-7.9-6.3-16.4-11.1-25.5-14.4c-9.1-3.3-19.2-4.9-30.5-4.9c-7.7,0-14.7,1.1-21.1,3.2c-6.5,2.1-12,5.2-16.6,9.1
		c-4.6,4-8.2,8.7-10.8,14.2c-2.6,5.5-3.9,11.6-3.9,18.4c0,7.2,1.1,13.3,3.4,18.3c2.3,5,5.6,9.3,10,12.8c4.3,3.5,9.7,6.5,16.1,8.8
		c6.4,2.3,13.7,4.5,22,6.4c7.2,1.8,13,3.5,17.5,5.1c4.5,1.6,8,3.3,10.6,5.2c2.6,1.8,4.3,3.9,5.3,6.1c1,2.2,1.5,4.7,1.5,7.5
		c0,6-2.5,10.8-7.4,14.3c-4.9,3.5-11.6,5.3-19.9,5.3c-9.7,0-18.4-1.7-26-5.2c-7.6-3.5-15.2-8.4-22.7-14.9l-16.3,19.4
		c9.2,8.4,19.3,14.6,30.2,18.6c10.9,4,22.3,6.1,34.2,6.1c8.1,0,15.5-1,22.3-3.1c6.7-2,12.5-5.1,17.3-9c4.8-4,8.6-8.8,11.3-14.5
		c2.7-5.7,4-12.2,4-19.6c0-6.5-1.1-12.1-3.2-16.9c-2.1-4.8-5.3-9-9.4-12.6c-4.1-3.6-9.3-6.6-15.6-9.1c-6.2-2.5-13.4-4.8-21.5-6.8
		c-7.4-1.8-13.4-3.5-18.2-5.1c-4.8-1.6-8.5-3.4-11.3-5.3c-2.7-1.9-4.6-4-5.6-6.2C2278.6,2858.6,2278,2855.9,2278,2852.9z
		 M2065.6,2862.9c0,8-2.9,14.3-8.6,19c-5.7,4.7-13.5,7.1-23.2,7.1H1994v-52h39.6c10.1,0,18.1,2.2,23.6,6.5
		C2062.9,2847.9,2065.6,2854.3,2065.6,2862.9z M2098,2966.8l-41.7-58.4c5.4-1.5,10.4-3.6,14.9-6.3c4.5-2.7,8.4-6,11.6-9.9
		c3.2-3.9,5.8-8.4,7.6-13.5c1.9-5.1,2.8-10.8,2.8-17.3c0-7.5-1.3-14.3-4-20.4c-2.7-6.1-6.4-11.2-11.4-15.4
		c-4.9-4.2-10.9-7.4-18.1-9.7c-7.1-2.3-15.1-3.4-23.9-3.4h-68.8v154.3h26.9V2913h34.1l38,53.8H2098z M1867.1,2812.5h-26.9v88.8
		c0,14.2-3.5,25-10.4,32.2c-7,7.2-16.5,10.8-28.6,10.8c-12.3,0-21.8-3.7-28.8-11.2c-7-7.5-10.5-18.5-10.5-32.8v-87.7h-26.9v88.8
		c0,11.2,1.5,21,4.6,29.4c3.1,8.5,7.5,15.5,13.2,21.3c5.7,5.7,12.6,10,20.7,12.9c8.1,2.9,17.1,4.3,27.1,4.3
		c10.1,0,19.3-1.4,27.4-4.3c8.1-2.9,15.1-7.2,20.8-13c5.7-5.8,10.2-13,13.3-21.7c3.1-8.7,4.7-18.8,4.7-30.2V2812.5z M1613.5,2889.9
		c0,7.5-1.3,14.6-3.9,21.3c-2.6,6.7-6.1,12.5-10.7,17.4c-4.6,4.9-10,8.8-16.4,11.7c-6.4,2.9-13.4,4.3-21.1,4.3
		c-7.6,0-14.7-1.5-21.1-4.4c-6.5-3-12-6.9-16.7-11.9c-4.6-5-8.2-10.8-10.8-17.5c-2.5-6.7-3.9-13.8-3.9-21.3s1.3-14.6,3.9-21.3
		c2.6-6.7,6.1-12.5,10.7-17.4c4.6-4.9,10-8.8,16.4-11.7c6.4-2.9,13.4-4.3,21.1-4.3c7.6,0,14.7,1.5,21.2,4.4c6.5,3,12,6.9,16.6,11.9
		c4.6,5,8.2,10.8,10.8,17.5C1612.2,2875.3,1613.5,2882.4,1613.5,2889.9z M1641.9,2889.4c0-10.9-2-21.2-6-30.8
		c-4-9.7-9.5-18.2-16.5-25.4c-7.1-7.2-15.5-12.9-25.3-17.1c-9.9-4.2-20.7-6.3-32.6-6.3c-11.9,0-22.8,2.1-32.6,6.4
		c-9.8,4.3-18.4,10-25.5,17.3c-7.2,7.3-12.8,15.7-16.8,25.4c-4,9.7-6,20-6,30.9c0,10.9,2,21.2,6,30.8c4,9.7,9.5,18.2,16.5,25.4
		c7.1,7.2,15.5,12.9,25.4,17.1c9.8,4.2,20.7,6.3,32.6,6.3c11.9,0,22.8-2.1,32.6-6.4c9.8-4.3,18.4-10,25.6-17.3
		c7.2-7.3,12.8-15.8,16.8-25.5C1639.9,2910.6,1641.9,2900.3,1641.9,2889.4z M1352.8,2905.3l61.3-92.8H1383l-43.7,68.3l-43.2-68.3
		h-32l61.3,93.4v60.8h27.3V2905.3z"/>
	<path class="st1" d="M3792,2540.6l166.5-252.2H3874l-118.6,185.7l-117.4-185.7h-86.9l166.5,254v165.3h74.3V2540.6z M3413.5,2578.4
		l-224.1-289.9h-68.2v419.3h73.1v-298.3l230.7,298.3h61.6v-419.3h-73.1V2578.4z M2902,2541.2h-144.4l71.9-167.7L2902,2541.2z
		 M2864.9,2285.5h-68.3l-184.5,422.3h75.5l43.1-101.2h198.3l42.5,101.2h77.9L2864.9,2285.5z M2539.6,2430.7c0,22.8-8.1,41.2-24.4,55
		c-16.2,13.9-38.3,20.7-66.4,20.7H2363v-151.5h85.9c27.6,0,49.7,6.3,66.1,19C2531.5,2386.5,2539.6,2405.5,2539.6,2430.7z
		 M2614.5,2429.2c0-21.6-3.7-41-11.1-58.1c-7.4-17.2-18-31.9-31.7-44.3c-13.8-12.4-30.6-21.9-50.3-28.5c-19.8-6.6-41.8-9.9-66.2-9.9
		h-165.3v419.3h73.1V2573h83.4c23.3,0,45-3.1,65.5-9.3c20.4-6.2,38.2-15.3,53.4-27.3c15.2-12,27.2-26.9,36-44.9
		C2610.1,2473.5,2614.5,2452.8,2614.5,2429.2z M2109,2407v300.7h73.1v-419.3h-78.5L1976,2486.7l-127.6-198.3H1770v419.3h73.1v-299.5
		l131.2,196.5h2.4L2109,2407z M1603.5,2498.7c0,20.4-3.5,39.6-10.5,57.8c-7,18.2-16.7,34-29.1,47.3c-12.3,13.4-27.2,24-44.6,31.7
		c-17.3,7.8-36.4,11.7-57.2,11.7c-20.7,0-39.9-4-57.5-12c-17.5-8-32.6-18.8-45.2-32.4c-12.6-13.6-22.4-29.4-29.4-47.6
		c-7-18.2-10.5-37.4-10.5-57.8c0-20.4,3.5-39.6,10.5-57.8c7-18.2,16.7-33.9,29-47.3c12.4-13.4,27.3-24,44.6-31.7
		c17.4-7.8,36.4-11.7,57.2-11.7c20.8,0,39.9,4,57.5,12c17.6,8,32.7,18.8,45.2,32.4c12.6,13.6,22.4,29.5,29.4,47.6
		C1600,2459.1,1603.5,2478.3,1603.5,2498.7z M1680.7,2497.5c0-29.5-5.4-57.5-16.2-83.9c-10.8-26.3-25.8-49.3-44.9-68.9
		c-19.2-19.6-42.1-35-68.9-46.4c-26.8-11.4-56.3-17.1-88.7-17.1c-32.3,0-61.9,5.8-88.6,17.4c-26.7,11.6-49.9,27.3-69.5,47
		c-19.6,19.7-34.8,42.8-45.5,69.2c-10.8,26.4-16.2,54.3-16.2,83.9c0,29.6,5.4,57.5,16.2,83.9c10.8,26.4,25.7,49.3,44.9,68.9
		c19.2,19.6,42.1,35,68.9,46.4c26.7,11.4,56.3,17.1,88.6,17.1c32.4,0,61.9-5.8,88.7-17.4c26.7-11.6,49.9-27.2,69.5-47
		c19.6-19.8,34.7-42.8,45.5-69.2C1675.4,2555,1680.7,2527,1680.7,2497.5z M1195.6,2640.6l-47.3-47.9c-18,16.8-36.1,30.1-54.5,39.9
		c-18.4,9.8-40.3,14.6-65.9,14.6c-20,0-38.4-3.9-55.4-11.7c-17-7.8-31.6-18.5-44-32c-12.4-13.6-22-29.5-28.7-47.6
		c-6.8-18.2-10.2-37.6-10.2-58.4s3.4-40.1,10.2-58.1c6.8-18,16.3-33.7,28.7-47c12.4-13.4,27.1-24,44-31.7
		c17-7.8,35.4-11.7,55.4-11.7c23.9,0,45.3,4.8,64.1,14.3c18.8,9.6,36.6,22.2,53.3,37.8l47.3-54.5c-10-9.6-20.5-18.4-31.7-26.4
		c-11.2-8-23.3-14.9-36.5-20.6c-13.2-5.8-27.6-10.3-43.4-13.5c-15.8-3.2-33.3-4.8-52.4-4.8c-31.9,0-61.1,5.7-87.4,17.1
		c-26.4,11.4-49.1,26.9-68.3,46.7c-19.2,19.8-34.1,42.8-44.6,69.2c-10.6,26.4-15.9,54.5-15.9,84.4c0,30.4,5.4,58.7,16.2,85
		c10.8,26.4,25.7,49.2,44.6,68.6c19,19.4,41.4,34.7,67.4,45.8c26,11.2,54.3,16.8,85.1,16.8c19.6,0,37.4-1.7,53.6-5.1
		c16.2-3.4,31-8.4,44.6-15c13.6-6.6,26.3-14.4,38-23.3C1173.5,2662.5,1184.8,2652.2,1195.6,2640.6z"/>
	<path class="st1" d="M2987,1052.3c80.5-9.6,102.4-14.3,188.9-6c-82.4,41.1-187.7,41.2-246.5,115.5c111.2,175.5,490.7,32.2,588-35.5
		C3439.7,973,3112.9,839.3,2987,1052.3 M1668.5,1549.8c114.8-7.4,253.6,4,339.6-49.1c63.4-39.1,138.5-135.7,177.9-204.1
		c-124.7-28.8-192.8,18.8-290.8,45.1c30.7-62.8,89-74.6,171-104.4c-98.1-70.5-216.4-25.1-278.8,42.6
		C1746.7,1323.9,1683.4,1477.6,1668.5,1549.8z M2191.1,997.2c2.5-204.7,29.3-157.7,38.7-206.6c15.5,152.7,0.2,164.1,54.4,299.6
		c37.3-29.3,128.7-190.9,126.2-257.6c-2.1-58.2-41-278.3-66-318.2C2228.5,565.5,2008.8,845.7,2191.1,997.2z M2543,1042
		c62.5-48.6,61-76.9,157.6-102.4c-58.9,66.2-117.9,97.7-147,226.9c105.3-16.9,214.9-33.3,268-96.5
		c17.9-21.3,105.2-206.1,114.8-239.1C2738.4,796.5,2540.2,816.9,2543,1042z M1253.4,1009c76.3,30.5,333.1,195.3,486.2,22.4
		c-27.2-33.5-62.1-47.1-105.4-59.9c-21-6.2-44.4-10.1-69.6-14.5l-62.9-18.4c92.1-18.2,88.9-15.1,180.9-2.3
		c-30.6-59.9-130.2-124.8-237.2-80.8c-46.3,19-61.7,38.4-97.8,67.7C1314.3,950.3,1274.9,976.5,1253.4,1009z M2369.1,337.4
		c30.9-17.4,35.8-39.9,78.5-95.2c-9,83-36.4,102.3-18.4,206.7c100.2-33.8,138.9-57.9,173-155.1c25.8-73.7,60-184.3,73.7-263.3
		C2482.6,29.8,2345.7,138,2369.1,337.4z M2030.1,971.9c-17.2-122.9-83.6-137.9-135.3-194.5c-1.5-1.7-4.3-4.9-6.2-7.6
		c76.6,17.3,98.5,52.1,150,89.7c2.4-231.3-191.9-187.2-385.1-189.4C1715.3,906.7,1827.4,936.9,2030.1,971.9z M2563.8,634.4
		l99.3-81.6c-14,51.5-89,138.6-69.2,182.6c78.9,30.8,181.4-55.5,209.7-98.3c27.3-41.3,107.2-187.2,113.5-231.9
		C2758.5,397.5,2542.7,420.3,2563.8,634.4z M1352,1526.3c178.8-33.7,314.9-120.2,329-309.7c-51.7,7-68.7,13-109.3,37
		c-42.6,25.2-59.3,48.5-96.5,64.3c17.9-63.6,60.8-71.2,94.5-118C1372.9,1160.9,1351.7,1359.2,1352,1526.3z M2727.4,1270.9l81.7,40.3
		c-84,5.5-95.5-7.6-178.1,18.9c23.6,29.8,108.6,101.4,154.5,125.5c59.7,31.2,181.3,37.4,244.3,2.5
		C3018.6,1305.9,2878.4,1172.1,2727.4,1270.9z M2023.2,490.4l17.8-36c5.2-14.4,5.8-25.6,13.2-45.1c10-26.5,25.2-45.6,37.4-61
		c-21.7,169.4-16.1,75.1-7.7,222.9c45.3-11.9,61.5-47.5,89.9-77.7c81.6-86.9,53.5-171.6,46.1-332.2
		c-32.7,10.1-143.1,79.7-169.5,102.1C1972.2,329.5,1993.5,395.3,2023.2,490.4z M1897,583.2c-18.4-86.9-76.3-129.9-117.3-175.3
		c60.5,12.4,89.7,49.6,124.4,77.2c-10.7-192.6-142.2-169.7-319.8-167.7C1618.6,461.9,1721.3,586.4,1897,583.2z M2206.4,2093.7
		l292.8,4.7c8.6-127.8-26.6-253.4-97-320.5C2391.8,1944.4,2297.6,2023.7,2206.4,2093.7z M3034,702.6l71.2-0.8
		c-48.6,30.8-66.9,33-90.1,93.6c104.8,17.3,120.2,27.7,201.7-29.1c38.4-26.8,107.9-78.6,134.4-113.2
		C3284.3,626.4,3092.1,529.1,3034,702.6z M2438,1495.9c-7-29.4-19.2-63.2-19.1-97.2c0.2-102.3,40.2-141.6,65.4-220.9
		C2331.9,1255.7,2258.5,1379.4,2438,1495.9z M2567.8,2095.2l127.4-1c99.2-269,86.7-341.6-127.5-468.5
		c-154-91.2-370.3-165.6-274.6-353c-300.2,211.4,85.7,364,214.5,543.7C2583.4,1922.2,2559.9,1964.4,2567.8,2095.2z"/>
</g>
</svg>
